<svg xmlns="http://www.w3.org/2000/svg" viewBox="0 0 420 520"><defs><linearGradient id="g" x1="0" y1="0" x2="1" y2="1"><stop offset="0" stop-color="#312e81"/><stop offset="1" stop-color="#f59e0b"/></linearGradient><radialGradient id="r" cx="72%" cy="18%" r="70%"><stop offset="0" stop-color="#fff" stop-opacity=".30"/><stop offset="1" stop-color="#fff" stop-opacity="0"/></radialGradient></defs><rect width="420" height="520" fill="url(#g)"/><rect width="420" height="520" fill="url(#r)"/><path d="M0 300 C140 210 250 300 420 230 L420 420 L0 420 Z" fill="#020617" opacity=".20"/><path d="M210 120 m-45 0 a45 45 0 1 0 90 0 a45 45 0 1 0 -90 0 M155 90 m-24 0 a24 24 0 1 0 48 0 a24 24 0 1 0 -48 0 M265 90 m-24 0 a24 24 0 1 0 48 0 a24 24 0 1 0 -48 0" fill="none" stroke="#fff" stroke-width="18" stroke-linecap="round" stroke-linejoin="round" opacity=".86"/><circle cx="330" cy="95" r="58" fill="#fff" opacity=".11"/><circle cx="80" cy="420" r="95" fill="#000" opacity=".08"/></svg>