<svg xmlns="http://www.w3.org/2000/svg" viewBox="0 0 420 520"><defs><linearGradient id="g" x1="0" y1="0" x2="1" y2="1"><stop offset="0" stop-color="#c2410c"/><stop offset="1" stop-color="#0f766e"/></linearGradient><radialGradient id="r" cx="72%" cy="18%" r="70%"><stop offset="0" stop-color="#fff" stop-opacity=".30"/><stop offset="1" stop-color="#fff" stop-opacity="0"/></radialGradient></defs><rect width="420" height="520" fill="url(#g)"/><rect width="420" height="520" fill="url(#r)"/><path d="M0 300 C100 230 250 300 420 210 L420 420 L0 420 Z" fill="#020617" opacity=".20"/><path d="M120 165 a35 35 0 1 0 1 0 M210 145 a40 40 0 1 0 1 0 M300 165 a35 35 0 1 0 1 0 M90 270 C120 215 165 215 195 270 M175 270 C210 205 260 205 295 270 M265 270 C295 215 340 215 370 270" fill="none" stroke="#fff" stroke-width="18" stroke-linecap="round" stroke-linejoin="round" opacity=".86"/><circle cx="330" cy="95" r="58" fill="#fff" opacity=".11"/><circle cx="80" cy="420" r="95" fill="#000" opacity=".08"/></svg>