<svg xmlns="http://www.w3.org/2000/svg" viewBox="0 0 420 520"><defs><linearGradient id="g" x1="0" y1="0" x2="1" y2="1"><stop offset="0" stop-color="#be185d"/><stop offset="1" stop-color="#f97316"/></linearGradient><radialGradient id="r" cx="72%" cy="18%" r="70%"><stop offset="0" stop-color="#fff" stop-opacity=".30"/><stop offset="1" stop-color="#fff" stop-opacity="0"/></radialGradient></defs><rect width="420" height="520" fill="url(#g)"/><rect width="420" height="520" fill="url(#r)"/><path d="M0 300 C130 230 260 320 420 250 L420 420 L0 420 Z" fill="#020617" opacity=".20"/><path d="M165 135 C135 95 70 110 82 165 C92 215 165 245 210 285 C255 245 328 215 338 165 C350 110 285 95 255 135 C235 105 185 105 165 135 Z" fill="none" stroke="#fff" stroke-width="18" stroke-linecap="round" stroke-linejoin="round" opacity=".86"/><circle cx="330" cy="95" r="58" fill="#fff" opacity=".11"/><circle cx="80" cy="420" r="95" fill="#000" opacity=".08"/></svg>